<svg width="30" height="30" viewBox="0 0 30 30" fill="none" xmlns="http://www.w3.org/2000/svg">
<path d="M24.0001 15.0001C24.0001 17.3701 23.5951 19.2901 23.1001 19.2901C22.6051 19.2901 22.1851 17.3701 22.1851 15.0001C22.1851 12.6301 22.5901 10.7101 23.1001 10.7101C23.6101 10.7101 24.0001 12.6301 24.0001 15.0001Z" fill="#F5F5F5"/>
<path d="M21.705 15.0001C21.705 17.6551 20.535 19.8001 19.08 19.8001C17.625 19.8001 16.5 17.6551 16.5 15.0001C16.5 12.3451 17.67 10.2001 19.11 10.2001C20.55 10.2001 21.705 12.3451 21.705 15.0001Z" fill="#F5F5F5"/>
<path d="M16.2 15.0001C16.2 16.0087 15.9009 16.9948 15.3405 17.8335C14.7801 18.6722 13.9836 19.3258 13.0517 19.7118C12.1198 20.0978 11.0943 20.1988 10.105 20.0021C9.11574 19.8053 8.20701 19.3195 7.49376 18.6063C6.78051 17.8931 6.29478 16.9843 6.098 15.995C5.90121 15.0057 6.00221 13.9803 6.38822 13.0484C6.77422 12.1165 7.4279 11.32 8.26659 10.7596C9.10528 10.1992 10.0913 9.90005 11.1 9.90005C12.4526 9.90005 13.7498 10.4374 14.7062 11.3938C15.6627 12.3502 16.2 13.6475 16.2 15.0001Z" fill="#F5F5F5"/>
</svg>
